<?xml version="1.0" standalone="no"?><!DOCTYPE svg PUBLIC "-//W3C//DTD SVG 1.1//EN" "http://www.w3.org/Graphics/SVG/1.1/DTD/svg11.dtd"><svg class="icon" width="200px" height="200.00px" viewBox="0 0 1024 1024" version="1.1" xmlns="http://www.w3.org/2000/svg"><path d="M35.698301 77.721345h59.476898c4.135408 0 7.419408 3.284 7.419408 7.419408s-3.284 7.419408-7.419408 7.419409H35.698301c-4.135408 0-7.419408-3.284-7.419408-7.419409s3.284-7.419408 7.419408-7.419408z m0 0" fill="#F4C15B" /><path d="M65.497565 47.922081c4.135408 0 7.419408 3.284 7.419409 7.419408v59.476898c0 4.135408-3.284 7.419408-7.419409 7.419408-4.135408 0-7.419408-3.284-7.419408-7.419408V55.341489c0-4.135408 3.284-7.419408 7.419408-7.419408z m0 0" fill="#F4C15B" /><path d="M362.030645 116.277943l28.704597 7.662668c4.013778 1.094667 6.324742 5.108445 5.230075 9.122223-1.094667 4.013778-5.108445 6.324742-9.122224 5.230075l-28.704597-7.662668c-4.013778-1.094667-6.324742-5.108445-5.230075-9.122223 1.216296-3.892149 5.108445-6.324742 9.122224-5.230075z m0 0" fill="#4680E8" /><path d="M414.939542 74.558974l7.662667 28.704596c1.094667 4.013778-1.216296 8.027557-5.230075 9.122224-4.013778 1.094667-8.027557-1.216296-9.122223-5.230075L400.587243 78.329493c-1.094667-4.013778 1.216296-8.027557 5.230075-9.122224 4.013778-0.973037 8.149186 1.337926 9.122224 5.351705z m0 0" fill="#8FB3FF" /><path d="M477.57881 99.493051L456.536881 120.53498c-2.919112 2.919112-7.541038 2.919112-10.46015 0-2.919112-2.919112-2.919112-7.541038 0-10.460149l21.041929-21.041929c2.919112-2.919112 7.541038-2.919112 10.46015 0 2.919112 2.797482 2.919112 7.541038 0 10.460149z m0 0" fill="#ABC3EF" /><path d="M927.000356 113.358831c-24.569189 0-44.516451 19.947262-44.516451 44.638081 0 24.569189 19.947262 44.516451 44.516451 44.516451 24.569189 0 44.638081-19.947262 44.638081-44.516451-0.12163-24.690818-20.068892-44.638081-44.638081-44.638081z m0 74.315715c-16.420002 0-29.799264-13.379261-29.799263-29.799264s13.379261-29.799264 29.799263-29.799263 29.799264 13.379261 29.799264 29.799263c-0.12163 16.541632-13.500891 29.799264-29.799264 29.799264z m0 0" fill="#F4C15B" /><path d="M905.715168 374.984202l-446.137546-59.476897v235.718256l446.137546 46.827414V374.984202z m0 0" fill="#4680E8" /><path d="M102.594607 392.742131l356.861385-77.113196v267.706853L102.594607 660.448984V392.742131z m0 0" fill="#8FB3FF" /><path d="M519.05452 482.018292l386.660648-106.91246V880.598646l-386.660648 106.91246V482.018292z m0 0" fill="#4680E8" /><path d="M102.594607 392.742131l416.338283 89.276161v502.816962L102.594607 883.517757V392.742131z m0 0" fill="#8FB3FF" /><path d="M519.05452 481.166884L102.594607 392.742131l-89.276161 178.430692 431.298729 101.317497 74.437345-191.323436z m0 0" fill="#ABC3EF" /><path d="M756.597221 28.461337L711.95914 46.584155v59.476897l44.638081-18.122817V28.461337z m0 0" fill="#F4C15B" /><path d="M659.780021 87.938235l44.638081 18.122817V46.584155l-44.638081-18.122818v59.476898z m96.8172-65.43675L708.796769 3.648889l-48.895118 16.906521 48.773489 20.67704 47.922081-18.730965z m0 0" fill="#E5CF6E" /><path d="M519.05452 482.018292l386.660648-106.91246 104.114978 178.430693-371.821831 121.751276-118.953795-193.269509z m0 0" fill="#8FB3FF" /><path d="M728.257513 388.241834S744.799145 283.883597 831.156194 231.947737c0 0 7.541038 8.514075 22.623115 27.853189 0 0-39.408006-6.203112-125.521796 128.440908z m0 0" fill="#ABC3EF" /><path d="M519.05452 383.984796s1.702815-57.165934 43.543413-186.09336c0 0 7.541038 8.514075 22.623115 27.853189-0.12163 0-15.933484 13.74415-66.166528 158.240171z m0 0" fill="#8FB3FF" /><path d="M373.585461 373.646276S326.514788 235.231738 211.209882 172.835729c0 0-19.217484 27.001782-40.381042 35.515857-0.12163 0 132.697945 46.219266 202.756621 165.29469z m0 0" fill="#E5CF6E" /></svg>