<?xml version="1.0" standalone="no"?><!DOCTYPE svg PUBLIC "-//W3C//DTD SVG 1.1//EN" "http://www.w3.org/Graphics/SVG/1.1/DTD/svg11.dtd"><svg class="icon" width="200px" height="200.00px" viewBox="0 0 1024 1024" version="1.1" xmlns="http://www.w3.org/2000/svg"><path d="M727.552 201.216c-12.288 0-22.016-9.728-22.016-22.016s9.728-22.016 22.016-22.016 22.016 9.728 22.016 22.016c0 11.776-9.728 22.016-22.016 22.016z m0-35.328c-7.168 0-12.8 5.632-12.8 12.8s5.632 12.8 12.8 12.8 12.8-5.632 12.8-12.8c0-6.656-5.632-12.8-12.8-12.8zM120.832 321.536c-14.336 0-26.112-11.776-26.112-26.112s11.776-26.112 26.112-26.112 26.112 11.776 26.112 26.112-11.776 26.112-26.112 26.112z m0-42.496c-9.216 0-16.896 7.68-16.896 16.896 0 9.216 7.68 16.896 16.896 16.896s16.896-7.68 16.896-16.896c0-9.728-7.68-16.896-16.896-16.896zM953.344 555.008c-14.336 0-26.112-11.776-26.112-26.112s11.776-26.112 26.112-26.112 26.112 11.776 26.112 26.112-11.776 26.112-26.112 26.112z m0-42.496c-9.216 0-16.896 7.68-16.896 16.896 0 9.216 7.68 16.896 16.896 16.896s16.896-7.68 16.896-16.896c-0.512-9.728-8.192-16.896-16.896-16.896zM102.4 432.64h-43.008c-3.072 0-5.632-2.56-5.632-5.632 0-3.072 2.56-5.632 5.632-5.632H102.4c3.072 0 5.632 2.56 5.632 5.632 0 3.072-2.56 5.632-5.632 5.632z" fill="#3573fa" /><path d="M87.04 405.504v43.008c0 3.072-2.56 5.632-5.632 5.632-3.072 0-5.632-2.56-5.632-5.632v-43.008c0-3.072 2.56-5.632 5.632-5.632 2.56 0 5.632 2.56 5.632 5.632zM340.992 176.128h-26.624c-2.048 0-3.584-1.536-3.584-3.584 0-2.048 1.536-3.584 3.584-3.584h26.624c2.048 0 3.584 1.536 3.584 3.584 0 2.048-1.536 3.584-3.584 3.584z" fill="#0091EF" /><path d="M331.264 159.232v26.624c0 2.048-1.536 3.584-3.584 3.584-2.048 0-3.584-1.536-3.584-3.584v-26.624c0-2.048 1.536-3.584 3.584-3.584 1.536 0 3.584 1.536 3.584 3.584zM738.304 706.56h-17.408c-2.56 0-4.608-2.048-4.608-4.608s2.048-4.608 4.608-4.608h17.408c2.56 0 4.608 2.048 4.608 4.608s-2.048 4.608-4.608 4.608zM696.32 706.56H328.704c-2.56 0-4.608-2.048-4.608-4.608s2.048-4.608 4.608-4.608H696.32c2.56 0 4.608 2.048 4.608 4.608s-2.048 4.608-4.608 4.608zM307.712 706.56h-15.36c-2.56 0-4.608-2.048-4.608-4.608s2.048-4.608 4.608-4.608h15.36c2.56 0 4.608 2.048 4.608 4.608s-2.048 4.608-4.608 4.608zM940.544 753.152h-33.28c-2.56 0-4.608-2.048-4.608-4.608s2.048-4.608 4.608-4.608h33.28c2.56 0 4.608 2.048 4.608 4.608s-2.048 4.608-4.608 4.608zM870.4 753.152H425.984c-2.56 0-4.608-2.048-4.608-4.608s2.048-4.608 4.608-4.608H870.4c2.56 0 4.608 2.048 4.608 4.608s-2.048 4.608-4.608 4.608zM404.48 753.152h-38.912c-2.56 0-4.608-2.048-4.608-4.608s2.048-4.608 4.608-4.608H404.48c2.56 0 4.608 2.048 4.608 4.608s-1.536 4.608-4.608 4.608zM344.576 753.152H161.792c-2.56 0-4.608-2.048-4.608-4.608s2.048-4.608 4.608-4.608h182.784c2.56 0 4.608 2.048 4.608 4.608s-2.048 4.608-4.608 4.608zM136.192 753.152h-30.208c-2.56 0-4.608-2.048-4.608-4.608s2.048-4.608 4.608-4.608h30.208c2.56 0 4.608 2.048 4.608 4.608s-2.048 4.608-4.608 4.608z" fill="#3573fa" /><path d="M718.848 830.976h-11.776c-2.56 0-4.608-2.048-4.608-4.608s2.048-4.608 4.608-4.608h11.776c2.56 0 4.608 2.048 4.608 4.608s-2.048 4.608-4.608 4.608zM772.608 830.976h-37.376c-2.56 0-4.608-2.048-4.608-4.608s2.048-4.608 4.608-4.608h37.376c2.56 0 4.608 2.048 4.608 4.608s-2.048 4.608-4.608 4.608zM687.616 830.976h-94.208c-2.56 0-4.608-2.048-4.608-4.608s2.048-4.608 4.608-4.608h94.208c2.56 0 4.608 2.048 4.608 4.608s-2.048 4.608-4.608 4.608zM547.84 830.976H411.136c-2.56 0-4.608-2.048-4.608-4.608s2.048-4.608 4.608-4.608H547.84c2.56 0 4.608 2.048 4.608 4.608s-2.048 4.608-4.608 4.608zM393.728 830.976h-31.744c-2.56 0-4.608-2.048-4.608-4.608s2.048-4.608 4.608-4.608h31.744c2.56 0 4.608 2.048 4.608 4.608s-2.048 4.608-4.608 4.608z" fill="#3573fa" /><path d="M594.432 829.44c-2.56 0-4.608-2.048-4.608-4.608 0-10.24-8.704-18.944-18.944-18.944s-18.944 8.704-18.944 18.944c0 2.56-2.048 4.608-4.608 4.608s-4.608-2.048-4.608-4.608c0-15.872 12.8-28.16 28.16-28.16 15.872 0 28.16 12.8 28.16 28.16 0 2.56-2.048 4.608-4.608 4.608z" fill="#3573fa" /><path d="M762.368 469.504h-170.496c-16.896 0-31.232-10.24-31.232-23.04s13.824-23.04 31.232-23.04H721.92c15.36 0 27.648-10.24 27.648-23.04s-12.288-23.04-27.648-23.04h-130.048c-16.896 0-31.232-10.24-31.232-23.04s13.824-23.04 31.232-23.04h38.4c15.36 0 27.648-10.24 27.648-23.04S645.12 286.72 630.272 286.72H288.768c-15.36 0-27.648 10.24-27.648 23.04s12.288 23.04 27.648 23.04h66.048c16.896 0 31.232 10.24 31.232 23.04S372.224 378.88 354.816 378.88H233.472c-15.36 0-27.648 10.24-27.648 23.04s12.288 23.04 27.648 23.04h121.344c16.896 0 31.232 10.24 31.232 23.04S372.224 471.04 354.816 471.04h-14.848c-15.36 0-27.648 10.24-27.648 23.04s12.288 23.04 27.648 23.04h33.28c16.896 0 31.232 10.24 31.232 23.04s-13.824 23.04-31.232 23.04h-143.36c-15.36 0-27.648 10.24-27.648 23.04s12.288 23.04 27.648 23.04h99.328c16.896 0 31.232 10.24 31.232 23.04 0 6.656-4.096 12.8-10.24 16.896H281.6c-15.36 0-27.648 10.24-27.648 23.04s12.288 23.04 27.648 23.04h440.32c15.36 0 27.648-10.24 27.648-23.04s-12.288-23.04-27.648-23.04h-177.152c-6.144-4.096-10.24-10.24-10.24-16.896 0-12.8 13.824-23.04 31.232-23.04h86.016c15.36 0 27.648-10.24 27.648-23.04s-12.288-23.04-27.648-23.04h-41.984c-16.896 0-31.232-10.24-31.232-23.04s13.824-23.04 31.232-23.04h152.064c15.36 0 27.648-10.24 27.648-23.04 0-14.336-12.288-24.576-27.136-24.576z" fill="#E9F0FF" /><path d="M856.064 307.2c-1.536 0-3.072-1.024-3.072-2.56v-22.016c0-1.536 1.024-2.56 2.56-2.56h0.512c1.536 0 2.56 1.024 2.56 2.56v22.016c0 1.024-1.024 2.56-2.56 2.56zM850.432 309.248c-1.024 1.024-2.56 1.024-3.584 0l-15.36-15.36c-1.024-1.024-1.024-2.56 0-3.584 1.024-1.024 2.56-1.024 3.584 0l15.36 15.36c1.024 1.024 1.024 2.56 0 3.584zM847.872 314.88c0 1.536-1.024 3.072-2.56 3.072h-22.016c-1.536 0-2.56-1.024-2.56-2.56v-0.512c0-1.536 1.024-2.56 2.56-2.56h22.016c1.536 0 2.56 1.024 2.56 2.56zM849.92 320.512c1.024 1.024 1.024 2.56 0 3.584l-15.36 15.36c-1.024 1.024-2.56 1.024-3.584 0-1.024-1.024-1.024-2.56 0-3.584l15.36-15.36c1.024-1.024 2.56-1.024 3.584 0zM855.552 323.072c1.536 0 3.072 1.024 3.072 2.56v22.016c0 1.536-1.024 2.56-2.56 2.56h-0.512c-1.536 0-2.56-1.024-2.56-2.56v-22.016c0-1.536 1.536-2.56 2.56-2.56zM861.696 321.024c1.024-1.024 2.56-1.024 3.584 0l15.36 15.36c1.024 1.024 1.024 2.56 0 3.584-1.024 1.024-2.56 1.024-3.584 0l-15.36-15.36c-1.024-1.024-1.024-2.56 0-3.584zM863.744 315.392c0-1.536 1.024-3.072 2.56-3.072h22.016c1.536 0 2.56 1.024 2.56 2.56v0.512c0 1.536-1.024 2.56-2.56 2.56h-22.016c-1.024 0-2.56-1.536-2.56-2.56zM861.696 309.248c-1.024-1.024-1.024-2.56 0-3.584l15.36-15.36c1.024-1.024 2.56-1.024 3.584 0 1.024 1.024 1.024 2.56 0 3.584l-15.36 15.36c-1.024 1.024-2.56 1.024-3.584 0z" fill="#0091EF" /><path d="M312.32 485.376l-0.512 122.88 170.496 32.256c1.024 0 2.048-0.512 2.048-1.536V425.984l-172.544-20.48 0.512 79.872z" fill="#3573fa" /><path d="M482.816 645.632H481.28l-175.104-33.28 0.512-126.976V399.36l183.296 22.016v217.6c0 2.048-1.024 4.096-2.56 5.632-1.536 0.512-3.072 1.024-4.608 1.024zM317.44 603.648l161.792 30.72V430.592L317.44 411.136v192.512z" fill="#0091EF" /><path d="M310.784 405.504l-38.4 72.192 176.64 32.768 35.328-84.48z" fill="#C1E0FF" /><path d="M452.096 516.608l-188.416-34.816L307.712 399.36l184.832 22.016-40.448 95.232z m-171.52-43.008l164.864 30.72L476.672 430.08l-162.816-19.456-33.28 62.976z" fill="#0091EF" /><path d="M482.816 425.984v212.992c0 1.024 1.024 1.536 2.048 1.536l154.112-41.984V394.24l-156.16 31.744z" fill="#3573fa" /><path d="M484.864 645.632c-1.536 0-3.072-0.512-4.096-1.536-1.536-1.536-2.56-3.584-2.56-5.632V421.376l166.912-33.792v215.04l-158.72 43.008h-1.536z m3.584-215.552v203.264l145.408-39.424V400.896L488.448 430.08z" fill="#0091EF" /><path d="M482.816 427.008l54.784 87.552 156.16-47.616L640.512 394.24z" fill="#C1E0FF" /><path d="M535.552 521.216l-61.44-97.792 168.448-35.328 59.904 81.408-166.912 51.712z m-43.52-90.112l48.64 77.312 144.896-44.544-46.592-63.488-146.944 30.72z" fill="#0091EF" /><path d="M311.296 402.944L463.36 373.76l175.616 17.408c0.512 0 0.512 1.024 0 1.024l-154.624 33.792L311.296 404.48c-1.024 0-1.024-1.024 0-1.536z" fill="#3573fa" /><path d="M484.352 431.104h-1.024L310.272 409.6c-3.072-0.512-5.12-3.072-5.12-5.632 0-3.072 2.048-5.632 5.12-6.144l153.088-29.696h1.024l175.616 17.408c3.072 0.512 5.12 2.56 5.12 5.632 0 3.072-2.048 5.632-4.608 6.144l-156.16 33.792z m-142.336-28.16l142.336 17.408 123.392-26.624-143.36-14.336-122.368 23.552z" fill="#0091EF" /><path d="M457.216 372.224h10.752v50.176h-10.752z" fill="#0091EF" /><path d="M499.712 347.648l-2.56-5.632c16.896-7.68 29.184-20.48 35.84-31.744h-0.512c-7.168-1.024-12.8-3.584-15.872-8.192-4.608-7.168-3.072-12.8-1.536-15.36 3.072-5.12 9.728-8.192 16.384-8.192 7.168 0.512 11.776 4.608 13.312 11.264 1.024 4.608 0.512 9.216-1.536 13.824 10.752-1.536 23.04-7.68 33.28-16.896 31.744-28.16 22.016-77.824 22.016-78.336l6.144-1.024c0.512 2.048 10.24 53.248-24.064 83.968-12.8 11.264-27.136 17.92-40.448 18.944-7.68 15.36-24.576 30.208-40.448 37.376z m30.72-62.976c-4.096 0-8.192 2.048-10.24 4.608-1.536 3.072 0 6.144 1.536 8.704 2.048 3.072 6.144 5.12 11.264 5.632h3.072c2.048-5.12 3.072-9.728 2.048-13.312-0.512-3.584-3.072-5.632-7.168-6.144 0 0.512-0.512 0.512-0.512 0.512z" fill="#0091EF" /><path d="M498.176 352.256l-5.632-11.776 3.072-1.536c16.896-7.68 27.136-18.944 31.744-26.624-6.144-1.536-11.264-4.608-13.824-8.704-6.144-9.216-3.072-16.384-1.536-18.944 3.584-6.144 11.264-9.728 19.456-9.216 8.704 0.512 14.848 5.632 16.384 13.824 0.512 3.072 0.512 6.656 0 10.24 8.704-2.56 18.432-7.68 26.624-15.36 30.208-27.136 20.992-74.752 20.992-75.264l-0.512-3.072 12.8-2.56 0.512 3.072c0.512 2.048 10.752 55.296-25.088 87.04-12.288 11.264-27.136 18.432-40.448 19.456-1.536 2.56-3.072 5.632-5.12 8.192-9.216 12.288-22.016 23.04-36.352 29.184l-3.072 2.048z m3.072-8.704c12.288-5.632 23.04-14.336 30.72-25.088 2.048-3.072 4.096-6.144 5.632-9.216l1.024-1.536h1.536c12.8-1.024 26.624-7.68 38.912-18.432 28.672-25.6 25.088-66.56 23.552-78.336h-0.512c1.536 11.776 4.608 52.736-23.552 77.824-10.752 9.728-23.04 15.872-34.816 17.92l-5.12 1.024 1.536-4.608c1.536-4.608 2.048-9.216 1.536-12.288-1.024-5.12-4.608-8.192-10.24-8.704-5.632-0.512-11.264 2.56-13.824 6.144-1.536 2.56-2.56 6.656 1.536 12.288 2.56 3.584 7.68 6.144 14.336 7.168h5.12l-3.072 4.608c-7.68 12.8-19.968 24.064-34.304 31.232zM537.6 307.2h-4.608c-6.144-0.512-11.264-3.072-13.824-6.656-3.072-4.096-3.584-8.704-1.536-12.288 2.048-3.072 5.632-5.632 10.24-6.144h2.56c6.656 0.512 9.216 4.608 9.728 8.192 1.024 4.096 0 9.216-2.048 14.848l-0.512 2.048z m-7.168-18.944h-1.024c-2.56 0.512-4.608 1.536-5.632 3.072-1.024 1.536 0 3.584 1.024 5.12 1.536 2.048 4.608 3.584 9.216 4.096 1.024-3.584 1.536-6.656 1.024-9.216-0.512-2.048-1.024-3.072-4.096-3.072h-0.512z" fill="#3573fa" /></svg>