<?xml version="1.0" standalone="no"?><!DOCTYPE svg PUBLIC "-//W3C//DTD SVG 1.1//EN" "http://www.w3.org/Graphics/SVG/1.1/DTD/svg11.dtd"><svg t="1689823617769" class="icon" viewBox="0 0 1024 1024" version="1.1" xmlns="http://www.w3.org/2000/svg" p-id="2341" xmlns:xlink="http://www.w3.org/1999/xlink" width="200" height="200"><path d="M389.12 961.024v4.608l-12.288 1.024v6.144h-5.632v-5.12l-16.896 1.024-0.512-5.12 17.92-1.024v-6.656h-15.36l-1.536-4.608c2.56-3.072 4.608-6.144 6.656-9.216h-8.704v-5.12h11.264c1.024-2.56 1.536-4.096 2.048-5.632l6.144 1.024c-0.512 2.048-1.536 3.584-2.048 4.608h19.968v5.12h-22.528c-2.048 3.584-3.584 6.656-5.632 9.216h9.728v-5.632h5.632v5.632h12.8v4.608h-12.8v6.656l11.776-1.536z m27.136 14.848v30.72h-6.144v-3.072H368.64v3.072h-6.144v-30.72h53.76z m-47.616 11.264h41.472v-6.144H368.64v6.144z m0 11.264h41.472v-6.144H368.64v6.144z m32.256-43.008c-1.024 6.656-3.072 12.8-6.656 17.92l-4.096-4.096c3.584-5.632 5.632-11.776 5.632-18.944v-12.8c10.24-1.024 18.432-2.56 24.064-5.632l3.584 4.608c-6.144 2.56-13.824 4.608-22.528 5.632v8.704h24.576v5.12h-8.704v17.92h-5.632v-17.92h-10.24zM440.832 935.936h58.88v5.632h-29.184v5.632c0 5.632-0.512 10.24-1.024 14.336h36.864v5.632h-25.6v28.672c0 2.56 1.536 4.096 4.096 4.096h10.24c2.048 0 3.584-0.512 4.096-1.536 1.024-1.024 2.048-5.12 2.048-11.264l5.632 2.048c-0.512 8.192-2.048 12.8-3.584 14.848-1.536 1.536-4.096 2.048-7.68 2.048h-13.312c-5.12 0-8.192-2.56-8.192-8.192v-29.696h-6.656c-1.536 7.168-3.584 13.312-6.144 18.432-5.12 9.216-13.312 15.872-24.576 20.48l-3.072-5.12c11.264-5.12 18.944-11.776 23.552-19.968 2.048-4.096 3.584-8.704 4.608-13.824h-27.136V962.56h28.16c0.512-4.096 1.024-9.216 1.024-14.336v-5.632H440.32v-6.656zM586.24 934.912v71.68h-5.632v-3.584h-55.296v3.584h-5.632v-71.68h66.56z m-60.928 62.976h55.296v-57.856h-55.296v57.856z m25.088-55.296c-0.512 2.048-1.536 3.584-2.048 4.608h21.504v4.096c-2.56 4.608-5.632 8.192-10.24 11.264 5.632 2.56 11.776 5.12 18.944 6.656l-3.072 4.608c-8.192-2.048-14.848-4.608-20.48-8.192-6.144 3.584-14.336 6.144-23.552 8.192l-2.56-4.608c8.192-1.536 15.36-3.584 21.504-6.144-3.072-2.048-6.144-4.608-8.192-6.656-2.56 2.048-5.12 4.608-8.192 6.144l-3.072-4.096c7.68-4.608 12.288-9.728 15.36-15.872h4.096z m-11.776 39.936c10.752 2.048 21.504 5.12 31.232 8.704l-2.048 4.608c-10.24-4.096-20.48-7.168-31.744-9.216l2.56-4.096z m8.192-11.776c6.144 2.048 12.288 4.608 17.408 7.68l-2.56 4.096c-5.632-3.584-11.264-6.144-17.408-8.192l2.56-3.584z m16.896-18.944h-18.432c-0.512 0.512-0.512 0.512-0.512 1.024 3.072 2.56 6.144 5.12 10.24 7.68 3.584-2.56 6.656-5.632 8.704-8.704zM615.936 976.896c-2.048 12.288-5.632 21.504-12.288 28.16l-4.608-4.096c7.68-7.68 11.264-20.48 11.264-38.4v-30.72h6.144v18.944h25.6v-19.968h5.632v19.968h22.528v5.632h-54.272v5.632c0 2.048 0 5.12-0.512 8.192h37.376v35.328h-6.144v-29.696h-30.72z" fill="#90B7FF" p-id="2342"></path><path d="M903.12704 772.67456c-1.024 32.768-6.144 64.512-15.872 95.744 0 0.512-0.512 1.536-0.512 2.048h-60.416v-2.048c4.096-46.08 27.136-327.168-0.512-375.296 2.56 4.096 81.92 133.12 77.312 279.552z" fill="#DEE8FC" p-id="2343"></path><path d="M898.51904 868.41856c-0.512 0.512-1.024 1.536-1.536 2.048h-45.056c0.512-0.512 0.512-1.536 1.024-2.048 7.68-13.312 29.696-53.76 50.176-95.232 22.016-45.056 42.496-91.648 40.448-108.032 0.512 3.072 15.872 118.784-45.056 203.264z" fill="#DEE8FC" p-id="2344"></path><path d="M181.69856 152.14592c-27.648 48.128-4.608 329.216-0.512 375.296v2.048h-59.904c0-0.512-0.512-1.536-0.512-2.048-9.728-30.72-15.36-62.976-16.384-95.232-4.608-146.944 75.264-275.968 77.312-280.064z" fill="#F7F8FC" p-id="2345"></path><path d="M63.93856 323.66592c-1.536 16.896 18.432 63.488 40.448 108.032 20.48 41.984 42.496 81.92 50.176 95.232 0.512 1.024 1.024 1.536 1.024 2.048h-45.056c-0.512-0.512-1.024-1.536-1.536-2.048-60.928-83.968-45.568-199.68-45.056-203.264z" fill="#F7F8FC" p-id="2346"></path><path d="M1022.464 52.736H1.536c-1.024 0-1.536-0.512-1.536-1.536s0.512-1.536 1.536-1.536h1020.928c1.024 0 1.536 0.512 1.536 1.536s-0.512 1.536-1.536 1.536z" fill="#F4F7F9" p-id="2347"></path><path d="M34.304 16.384m-16.384 0a16.384 16.384 0 1 0 32.768 0 16.384 16.384 0 1 0-32.768 0Z" fill="#C0D1F1" p-id="2348"></path><path d="M90.112 16.384m-16.384 0a16.384 16.384 0 1 0 32.768 0 16.384 16.384 0 1 0-32.768 0Z" fill="#C0D1F1" p-id="2349"></path><path d="M145.92 16.384m-16.384 0a16.384 16.384 0 1 0 32.768 0 16.384 16.384 0 1 0-32.768 0Z" fill="#C0D1F1" p-id="2350"></path><path d="M989.184 9.728h-39.424c-1.536 0-3.072-1.536-3.072-3.072s1.536-3.072 3.072-3.072h39.424c1.536 0 3.072 1.536 3.072 3.072 0 2.048-1.536 3.072-3.072 3.072zM989.184 20.992h-39.424c-1.536 0-3.072-1.536-3.072-3.072s1.536-3.072 3.072-3.072h39.424c1.536 0 3.072 1.536 3.072 3.072s-1.536 3.072-3.072 3.072zM989.184 31.744h-39.424c-1.536 0-3.072-1.536-3.072-3.072s1.536-3.072 3.072-3.072h39.424c1.536 0 3.072 1.536 3.072 3.072 0 2.048-1.536 3.072-3.072 3.072z" fill="#C0D1F1" p-id="2351"></path><path d="M970.91584 656.896h-380.928c-6.144 0-11.264-5.12-11.264-11.264V150.016c0-6.144 5.12-11.264 11.264-11.264h380.928c6.144 0 11.264 5.12 11.264 11.264v496.128c0 6.144-5.12 10.752-11.264 10.752z m-380.928-515.072c-4.608 0-8.192 3.584-8.192 8.192v496.128c0 4.608 3.584 8.192 8.192 8.192h380.928c4.608 0 8.192-3.584 8.192-8.192V150.016c0-4.608-3.584-8.192-8.192-8.192h-380.928z" fill="#F4F7F9" p-id="2352"></path><path d="M934.56384 387.584h-161.792c-6.144 0-11.264-5.12-11.264-11.264V249.856c0-6.144 5.12-11.264 11.264-11.264h161.792c6.144 0 11.264 5.12 11.264 11.264v126.464c0 6.144-5.12 11.264-11.264 11.264z" fill="#DEE8FC" p-id="2353"></path><path d="M837.3504 444.3392H675.5584c-6.144 0-11.264-5.12-11.264-11.264V306.6112C664.2944 300.4672 669.4144 295.3472 675.5584 295.3472h161.792C843.4944 295.3472 848.6144 300.4672 848.6144 306.6112v126.464c-0.512 6.144-5.12 11.264-11.264 11.264zM675.5584 298.4192C670.9504 298.4192 667.3664 302.0032 667.3664 306.6112v126.464c0 4.608 3.584 8.192 8.192 8.192h161.792c4.608 0 8.192-3.584 8.192-8.192V306.6112c0-4.608-3.584-8.192-8.192-8.192H675.5584z" fill="#E4EAEE" p-id="2354"></path><path d="M881.8944 479.1552H720.1024c-6.144 0-11.264-5.12-11.264-11.264V341.9392c0-6.144 5.12-11.264 11.264-11.264h161.792c6.144 0 11.264 5.12 11.264 11.264v126.464c0 6.144-5.12 10.752-11.264 10.752z" fill="#C0D1F1" p-id="2355"></path><path d="M819.4304 442.2912H738.0224h-0.512l38.4-66.56c0.512-1.536 2.56-1.536 3.584-1.024 0.512 0 1.024 0.512 1.024 1.024l25.6 44.544 1.024 2.048 12.288 19.968z" fill="#FFFFFF" p-id="2356"></path><path d="M819.4304 442.2912h-27.648l13.824-19.968 1.024-1.536 0.512-0.512 1.024 2.048 11.264 19.968z" opacity=".2" p-id="2357"></path><path d="M864.4864 442.2912H794.3424l13.824-19.968 1.024-1.536 17.92-25.6c1.024-1.536 3.584-2.048 5.12-0.512h0.512v0.512l31.744 47.104z" fill="#FFFFFF" p-id="2358"></path><path d="M860.9024 363.4432m-11.776 0a11.776 11.776 0 1 0 23.552 0 11.776 11.776 0 1 0-23.552 0Z" fill="#FFFFFF" p-id="2359"></path><path d="M455.61856 750.55104h-380.928c-6.144 0-11.264-5.12-11.264-11.264v-126.464c0-6.144 5.12-11.264 11.264-11.264h380.928c6.144 0 11.264 5.12 11.264 11.264v126.464c0 6.144-5.12 11.264-11.264 11.264z" fill="#DEE8FC" p-id="2360"></path><path d="M454.08256 569.81504h-380.928c-6.144 0-11.264-5.12-11.264-11.264v-308.736c0-6.144 5.12-11.264 11.264-11.264h380.928c6.144 0 11.264 5.12 11.264 11.264v308.736c0 6.144-5.12 11.264-11.264 11.264z m-380.928-328.192c-4.608 0-8.192 3.584-8.192 8.192v308.736c0 4.608 3.584 8.192 8.192 8.192h380.928c4.608 0 8.192-3.584 8.192-8.192v-308.736c0-4.608-3.584-8.192-8.192-8.192h-380.928z" fill="#E4EAEE" p-id="2361"></path><path d="M539.0592 501.85216H158.1312c-6.144 0-11.264-5.12-11.264-11.264V181.85216C146.8672 175.70816 151.9872 170.58816 158.1312 170.58816h380.928c6.144 0 11.264 5.12 11.264 11.264v308.736c0 6.144-5.12 11.264-11.264 11.264z" fill="#92B4F3" p-id="2362"></path><path d="M392.1152 425.56416h-194.56-0.512l92.16-159.232c1.536-3.072 5.632-4.096 8.704-2.56 1.024 0.512 2.048 1.536 2.56 2.56l61.952 107.008 3.072 5.12 26.624 47.104z" fill="#FFFFFF" p-id="2363"></path><path d="M392.1152 425.56416h-66.56l32.768-47.104 2.56-3.584 1.024-1.536 3.072 5.12 27.136 47.104z" fill="#3D7FFC" opacity=".2" p-id="2364"></path><path d="M500.1472 425.56416H332.2112l32.768-47.104 2.56-3.584 42.496-61.44c3.072-3.584 8.192-4.096 12.288-1.536l0.512 0.512 0.512 0.512 76.8 112.64z" fill="#FFFFFF" p-id="2365"></path><path d="M488.8832 233.56416m-28.672 0a28.672 28.672 0 1 0 57.344 0 28.672 28.672 0 1 0-57.344 0Z" fill="#FFFFFF" p-id="2366"></path><path d="M675.85024 527.9488c2.56-1.536 5.632-2.048 8.704-1.536l45.568-42.496-7.68-37.888 30.208 1.536 2.56 46.08-60.416 47.104c-1.024 7.168-7.168 11.776-14.336 11.264s-11.776-7.168-11.264-14.336c0.512-4.096 3.072-7.68 6.656-9.728zM625.67424 848.9728h-19.456l-9.216-75.776H625.67424V848.9728z" fill="#FFCFCF" p-id="2367"></path><path d="M630.79424 867.9168H567.30624v-1.024c0-13.824 11.264-24.576 24.576-24.576H630.79424v25.6z" fill="#CED9E0" p-id="2368"></path><path d="M772.61824 848.9728h-19.456l-9.216-75.776h29.184V848.9728z" fill="#FFCFCF" p-id="2369"></path><path d="M777.73824 867.9168H714.76224v-1.024c0-13.824 11.264-24.576 24.576-24.576h38.4v25.6z" fill="#CED9E0" p-id="2370"></path><path d="M736.77824 423.5008c-5.12-6.144-13.312-7.68-20.48-4.096-6.656 3.584-9.728 11.776-7.168 19.456l9.728 26.624 39.424-14.848-21.504-27.136z" fill="#90B7FF" p-id="2371"></path><path d="M733.70624 541.2608c-2.048-1.536-3.584-2.56-5.632-3.584l-71.68 11.264 1.536 45.056C623.11424 659.5328 600.07424 733.7728 587.27424 816.7168l45.056 10.24c19.968-77.824 43.008-147.968 71.68-200.192l30.208 198.144 51.712-1.024C779.27424 707.1488 774.15424 571.4688 733.70624 541.2608z" fill="#C0D1F1" p-id="2372"></path><path d="M679.94624 384.0768m-28.16 0a28.16 28.16 0 1 0 56.32 0 28.16 28.16 0 1 0-56.32 0Z" fill="#FFCFCF" p-id="2373"></path><path d="M741.38624 455.7568c2.56-15.872-5.632-31.744-19.968-38.4l-31.744 1.536c-10.24 2.56-18.944 10.24-23.04 19.968-13.824 31.744-15.36 72.704-9.728 119.808l74.752-17.92c-10.24-23.04-2.048-53.248 9.728-84.992z" fill="#90B7FF" p-id="2374"></path><path d="M645.13024 377.4208c0-15.872 12.8-28.672 28.672-28.672h1.536C680.45824 344.6528 687.11424 342.0928 693.77024 342.6048c16.384 0 29.696 13.312 29.696 29.696v37.376c-21.504 0-43.008 3.584-64 9.728C665.09824 403.0208 669.19424 388.1728 666.63424 377.9328l-21.504-0.512z" fill="#565D66" p-id="2375"></path><path d="M586.25024 506.9568c3.072 0 5.632 1.024 8.192 3.072l60.416-15.36 11.776-36.864 25.6 15.872-19.968 41.984-75.776 12.288c-4.096 5.632-12.288 7.168-17.92 3.072-5.632-4.096-7.168-12.288-3.072-17.92 2.56-4.096 6.656-6.144 10.752-6.144z" fill="#FFCFCF" p-id="2376"></path><path d="M704.01024 446.0288c2.048-7.68-1.536-15.872-8.192-18.944-7.168-3.584-15.36-1.024-19.968 5.12l-16.384 23.04 34.816 23.552 9.728-32.768z" fill="#90B7FF" p-id="2377"></path><path d="M859.65824 870.4768H469.00224c-1.024 0-2.048-1.024-2.048-2.048s1.024-2.048 2.048-2.048h390.656c1.024 0 2.048 1.024 2.048 2.048s-1.024 2.048-2.048 2.048z" fill="#E4EAEE" p-id="2378"></path></svg>