<?xml version="1.0" standalone="no"?><!DOCTYPE svg PUBLIC "-//W3C//DTD SVG 1.1//EN" "http://www.w3.org/Graphics/SVG/1.1/DTD/svg11.dtd"><svg t="1692671034479" class="icon" viewBox="0 0 1445 1024" version="1.1" xmlns="http://www.w3.org/2000/svg" p-id="2796" xmlns:xlink="http://www.w3.org/1999/xlink" width="282.2265625" height="200"><path d="M0 823.215686a722.823529 200.784314 0 1 0 1445.647059 0 722.823529 200.784314 0 1 0-1445.647059 0Z" fill="#4483FF" opacity=".2" p-id="2797"></path><path d="M234.435765 13.57302m40.719059 0l880.820705 0q40.719059 0 40.719059 40.719058l0 469.855373q0 40.719059-40.719059 40.719059l-880.820705 0q-40.719059 0-40.719059-40.719059l0-469.855373q0-40.719059 40.719059-40.719058Z" fill="#4483FF" p-id="2798"></path><path d="M299.309176 77.844078m40.719059 0l751.073883 0q40.719059 0 40.719058 40.719059l0 341.313255q0 40.719059-40.719058 40.719059l-751.073883 0q-40.719059 0-40.719059-40.719059l0-341.313255q0-40.719059 40.719059-40.719059Z" fill="#FFFFFF" p-id="2799"></path><path d="M483.127216 719.149176m27.146039 0l421.386039 0q27.146039 0 27.146039 27.14604l0 14.978509q0 27.146039-27.146039 27.14604l-421.386039 0q-27.146039 0-27.146039-27.14604l0-14.978509q0-27.146039 27.146039-27.14604Z" fill="#4483FF" p-id="2800"></path><path d="M1112.726588 150.528c-398.215529 179.902745-619.560157 278.447686-664.013804 295.574588-44.473725 17.14698-83.225098 29.093647-116.294274 35.819922l766.71498 1.706666a13.57302 13.57302 0 0 0 13.593098-13.573019V150.528z" fill="#D8E5FF" opacity=".6" p-id="2801"></path><path d="M665.941333 602.011608v103.564549h98.163451v-103.564549z" fill="#FFFFFF" p-id="2802"></path><path d="M599.481725 240.198275m30.117648 0l173.919372 0q30.117647 0 30.117647 30.117647l0 125.931921q0 30.117647-30.117647 30.117647l-173.919372 0q-30.117647 0-30.117648-30.117647l0-125.931921q0-30.117647 30.117648-30.117647Z" fill="#4483FF" p-id="2803"></path><path d="M716.559059 275.857569a38.289569 38.289569 0 0 1 25.861019 66.499764l9.195922 35.799843a10.039216 10.039216 0 0 1-9.717961 12.54902H691.220078a10.039216 10.039216 0 0 1-9.71796-12.54902l9.216-35.779764a38.289569 38.289569 0 0 1 25.840941-66.519843z m0 15.058823a23.230745 23.230745 0 0 0-17.588706 38.369883l1.907451 1.987764 6.666039 6.103843-9.838431 38.249412h37.707294l-9.818353-38.26949 6.666039-6.103843a23.230745 23.230745 0 0 0-15.681255-40.357647z" fill="#4E699D" p-id="2804"></path><path d="M716.559059 290.916392a23.230745 23.230745 0 0 0-17.588706 38.369883l1.907451 1.987764 6.666039 6.103843-9.838431 38.249412h37.707294l-9.818353-38.26949 6.666039-6.103843a23.230745 23.230745 0 0 0-15.681255-40.357647z" fill="#FFFFFF" p-id="2805"></path><path d="M716.559059 133.300706a66.660392 66.660392 0 0 1 66.56 62.885647l0.100392 3.774745v19.998118h-133.320784v-19.998118a66.660392 66.660392 0 0 1 66.660392-66.660392z" fill="#4E699D" p-id="2806"></path><path d="M716.559059 162.193569c21.423686 0 38.912 18.552471 40.096627 41.923764l0.060236 2.509804v13.332079h-80.313726v-13.332079c0-24.535843 17.990275-44.41349 40.156863-44.41349z" fill="#FFFFFF" p-id="2807"></path><path d="M167.695059 606.428863a7.609725 7.609725 0 0 1 8.693961 4.096l0.522039 1.445647 50.918902 205.141333a7.609725 7.609725 0 0 1-14.255686 5.099922l-0.501961-1.445647-50.918902-205.141334a7.609725 7.609725 0 0 1 5.541647-9.195921z" fill="#4E699D" p-id="2808"></path><path d="M191.327373 588.920471a7.609725 7.609725 0 0 1 8.071529 5.220392l0.321255 1.505882 22.628392 205.141333a7.609725 7.609725 0 0 1-14.797804 3.172393l-0.321255-1.505883-22.628392-205.141333a7.609725 7.609725 0 0 1 6.726275-8.392784z" fill="#4E699D" p-id="2809"></path><path d="M261.220392 730.37302c5.621961 0 10.139608 4.537725 10.139608 10.139607v113.643922a10.139608 10.139608 0 0 1-10.119529 10.119529H179.661804a10.139608 10.139608 0 0 1-10.139608-10.139607v-113.643922c0-5.581804 4.537725-10.119529 10.139608-10.119529h81.578667z m-5.079843 15.199372H184.721569v103.504314h71.41898v-103.504314z" fill="#4E699D" p-id="2810"></path><path d="M186.448314 819.862588h68.266666v27.748392h-68.266666z" fill="#4483FF" p-id="2811"></path><path d="M1225.507137 778.581333c5.662118 0 10.440784 4.156235 11.243922 9.758118l15.018666 106.87749a11.344314 11.344314 0 0 1-9.657725 12.810039l-0.803137 0.080314-131.011765 0.040157a11.344314 11.344314 0 0 1-11.344314-11.364392l8.292392-107.720784a11.344314 11.344314 0 0 1 11.324236-10.480942h106.937725z m-3.373176 15.199373h-100.030745l-7.669961 99.147294h121.635137l-13.934431-99.147294z" fill="#4E699D" p-id="2812"></path><path d="M1167.701333 808.478118c17.78949 0 33.169569 12.468706 36.823843 29.916862l4.136157 19.616628a8.513255 8.513255 0 0 1-8.332549 10.260078h-49.894902a8.513255 8.513255 0 0 1-8.453019-7.589647l-2.409412-22.287059a27.00549 27.00549 0 0 1 23.953569-29.756235l1.445647-0.12047 2.730666-0.040157z m2.57004 10.159686l-2.57004-0.120471h-1.285019a16.966275 16.966275 0 0 0-16.966275 16.665098l0.100392 2.108236 2.248785 20.941804h46.622117l-3.714509-17.789491a27.607843 27.607843 0 0 0-24.435451-21.805176z" fill="#4E699D" p-id="2813"></path><path d="M1170.211137 820.766118a5.019608 5.019608 0 0 1 5.822745 2.248784l0.481883 1.064157 4.276706 13.753725a5.019608 5.019608 0 0 1-9.115608 4.015687l-0.481883-1.044079-4.276705-13.753725a5.019608 5.019608 0 0 1 3.292862-6.284549z" fill="#4E699D" p-id="2814"></path><path d="M963.503686 757.960784l0.281098-10.039215 20.118589 0.642509 18.873725 0.742902 17.66902 0.883451 16.444235 0.983844 15.199372 1.084235 7.147922 0.602353c27.065725 2.369255 48.128 7.188078 64.813177 13.974588l5.220392 2.168471c2.288941 1.003922 4.216471 1.927529 6.224313 3.011764l4.316863 2.489726 8.83451 5.541647-5.421177 8.453019-8.372705-5.24047-4.015687-2.329098-3.754666-1.887373a90.172235 90.172235 0 0 0-2.007843-0.903529l-4.818824-2.007843c-15.701333-6.384941-35.799843-11.00298-61.881725-13.251765-4.618039-0.401569-9.436863-0.803137-14.47655-1.164549l-15.721411-1.044078a1500.742275 1500.742275 0 0 0-8.312471-0.461804l-17.548549-0.863373-18.793412-0.76298-20.018196-0.622432z" fill="#4E699D" p-id="2815"></path></svg>