<?xml version="1.0" standalone="no"?><!DOCTYPE svg PUBLIC "-//W3C//DTD SVG 1.1//EN" "http://www.w3.org/Graphics/SVG/1.1/DTD/svg11.dtd"><svg t="1692671020121" class="icon" viewBox="0 0 1024 1024" version="1.1" xmlns="http://www.w3.org/2000/svg" p-id="2473" xmlns:xlink="http://www.w3.org/1999/xlink" width="200" height="200"><path d="M765.1328 259.7888l-568.40192 0.65536a28.38528 28.38528 0 0 0-28.3648 28.42624l0.59392 526.53056a28.39552 28.39552 0 0 0 28.43648 28.35456l568.39168-0.64512a28.39552 28.39552 0 0 0 28.3648-28.416l-0.60416-526.5408a28.40576 28.40576 0 0 0-28.416-28.3648z m-568.39168 10.89536l568.40192-0.65536c10.01472 0 18.15552 8.11008 18.16576 18.14528l0.6144 526.53056c0 10.01472-8.12032 18.15552-18.14528 18.16576l-568.39168 0.64512c-10.0352 0-18.16576-8.0896-18.18624-18.1248l-0.59392-526.5408a18.14528 18.14528 0 0 1 18.1248-18.16576z" fill="#3370FF" p-id="2474"></path><path d="M724.6848 794.3168l-486.95296 0.5632a19.94752 19.94752 0 0 1-19.95776-19.92704l-0.512-451.06176a19.93728 19.93728 0 0 1 19.9168-19.968l486.93248-0.55296a19.94752 19.94752 0 0 1 19.968 19.9168l0.512 451.072a19.93728 19.93728 0 0 1-19.9168 19.968" fill="#BACEFD" p-id="2475"></path><path d="M480.70656 61.44c109.69088-0.12288 198.72768 88.70912 198.8608 198.4a5.12 5.12 0 0 1-10.24 0.02048C669.184 155.82208 584.74496 71.55712 480.69632 71.68c-104.0384 0.12288-188.29312 84.56192-188.17024 188.60032a5.12 5.12 0 0 1-10.24 0.02048C282.17344 150.59968 370.9952 61.56288 480.70656 61.44z" fill="#3370FF" p-id="2476"></path><path d="M557.6192 463.94368a76.68736 76.68736 0 0 0-76.77952-76.60544 76.68736 76.68736 0 0 0-76.5952 76.77952 76.63616 76.63616 0 0 0 40.37632 67.47136l-26.96192 158.85312 123.46368-0.14336-20.76672-160.57344a76.57472 76.57472 0 0 0 37.2736-65.78176" fill="#3370FF" p-id="2477"></path><path d="M480.83968 382.21824a81.80736 81.80736 0 0 0-81.7152 81.89952l0.0512 2.93888a81.7152 81.7152 0 0 0 38.05184 66.14016l1.75104 1.05472-26.368 155.33056a5.12 5.12 0 0 0 5.05856 5.98016l123.46368-0.14336 0.90112-0.08192a5.12 5.12 0 0 0 4.16768-5.69344l-20.34688-157.34784 2.07872-1.40288a81.6128 81.6128 0 0 0 34.816-66.95936 81.80736 81.80736 0 0 0-79.36-81.68448l-2.56-0.03072z m0 10.24a71.56736 71.56736 0 0 1 71.65952 71.48544 71.43424 71.43424 0 0 1-34.77504 61.3888l-0.70656 0.512a5.12 5.12 0 0 0-1.7408 4.53632l20.0192 154.79808-111.57504 0.12288 25.94816-152.86272a5.12 5.12 0 0 0-2.62144-5.36576 71.56736 71.56736 0 0 1 31.3344-134.57408l2.4576-0.04096z" fill="#FFFFFF" p-id="2478"></path><path d="M681.60512 534.016C682.25024 456.42752 745.69728 394.0352 823.296 394.7008c77.60896 0.64512 139.9808 64.08192 139.34592 141.69088-0.65536 77.60896-64.1024 139.9808-141.70112 139.33568C743.34208 675.06176 680.96 611.61472 681.60512 534.016" fill="#FFC60A" p-id="2479"></path><path d="M626.97472 926.52544l222.72-378.368a7.7824 7.7824 0 0 0-2.7648-10.62912l-43.50976-25.6a7.76192 7.76192 0 0 0-10.61888 2.73408L570.09152 893.06112a7.7824 7.7824 0 0 0 2.74432 10.62912l43.52 25.61024a7.7824 7.7824 0 0 0 10.61888-2.7648" fill="#FFC60A" p-id="2480"></path><path d="M589.96736 903.84384L605.41952 877.90592A7.75168 7.75168 0 0 1 616.07936 875.2128L681.2672 914.10432c3.6864 2.19136 4.89472 6.9632 2.69312 10.63936L668.50816 950.6816a7.75168 7.75168 0 0 1-10.6496 2.69312L592.67072 914.4832a7.76192 7.76192 0 0 1-2.69312-10.6496" fill="#FFC60A" p-id="2481"></path><path d="M632.99584 837.5296l15.4624-25.94816a7.76192 7.76192 0 0 1 10.6496-2.69312l65.20832 38.89152c3.6864 2.19136 4.89472 6.9632 2.69312 10.6496l-15.47264 25.92768a7.75168 7.75168 0 0 1-10.6496 2.69312l-65.19808-38.89152a7.76192 7.76192 0 0 1-2.69312-10.63936" fill="#FFC60A" p-id="2482"></path><path d="M51.75296 477.92128a5.12 5.12 0 0 1 6.89152-2.2528l3.86048 2.06848 3.92192 2.18112c2.07872 1.1776 4.33152 2.47808 6.73792 3.90144a583.8848 583.8848 0 0 1 37.86752 24.53504 710.98368 710.98368 0 0 1 114.7392 100.57728C299.1104 688.64 352.3584 782.7968 377.26208 891.904l1.14688 5.1712 1.23904-4.22912c3.97312-13.0048 9.1136-25.92768 15.58528-38.28736l2.85696-5.25312c34.816-61.91104 92.9792-89.2928 178.62656-62.06464a5.12 5.12 0 0 1-3.10272 9.75872c-80.73216-25.66144-134.03136-0.57344-166.6048 57.32352-8.36608 14.88896-14.65344 30.8736-19.12832 46.85824-1.25952 4.47488-2.29376 8.704-3.13344 12.58496l-1.06496 5.33504a80.1792 80.1792 0 0 0-0.54272 3.21536c-0.79872 5.77536-9.08288 5.9392-10.10688 0.2048-21.27872-119.3984-76.32896-221.37856-154.79808-306.66752a700.81536 700.81536 0 0 0-113.08032-99.1232 573.68576 573.68576 0 0 0-37.20192-24.10496l-4.47488-2.6112c-1.4336-0.8192-2.7648-1.57696-4.0448-2.28352l-4.42368-2.4064a74.9056 74.9056 0 0 0-1.00352-0.53248 5.12 5.12 0 0 1-2.2528-6.88128z" fill="#3370FF" p-id="2483"></path><path d="M784.2304 465.37728a5.12 5.12 0 0 1 6.17472-2.2016l0.83968 0.39936 106.14784 62.69952a5.12 5.12 0 0 1-4.37248 9.216l-0.83968-0.4096-106.14784-62.68928a5.12 5.12 0 0 1-1.80224-7.0144zM764.64128 495.9744a5.12 5.12 0 0 1 6.17472-2.2016l0.83968 0.39936 106.14784 62.69952a5.12 5.12 0 0 1-4.38272 9.216l-0.82944-0.39936-106.14784-62.69952a5.12 5.12 0 0 1-1.80224-7.0144zM746.1888 527.32928a5.12 5.12 0 0 1 6.17472-2.2016l0.83968 0.39936 106.14784 62.69952a5.12 5.12 0 0 1-4.37248 9.216l-0.83968-0.4096-106.14784-62.68928a5.12 5.12 0 0 1-1.80224-7.0144z" fill="#FFFFFF" p-id="2484"></path></svg>