<?xml version="1.0" standalone="no"?><!DOCTYPE svg PUBLIC "-//W3C//DTD SVG 1.1//EN" "http://www.w3.org/Graphics/SVG/1.1/DTD/svg11.dtd"><svg t="1692671030451" class="icon" viewBox="0 0 1500 1024" version="1.1" xmlns="http://www.w3.org/2000/svg" p-id="2629" xmlns:xlink="http://www.w3.org/1999/xlink" width="292.96875" height="200"><path d="M59.076923 917.661538h43.323077v70.892308H59.076923z" fill="#B3CCFF" p-id="2630"></path><path d="M82.715569 929.476923H165.415385l-41.353847-70.900185L82.719508 787.692308l-41.365662 70.88443L0 929.465108z" fill="#A8C4FC" p-id="2631"></path><path d="M82.707692 894.030769h70.892308l-35.446154-61.038277L82.707692 771.938462l-35.446154 61.05403L11.815385 894.030769z" fill="#B9D1FF" p-id="2632"></path><path d="M84.676923 850.707692H145.723077l-30.534892-53.16923-30.499447-53.169231-30.534892 53.169231L23.630769 850.707692z" fill="#CADDFD" p-id="2633"></path><path d="M220.553846 338.707692l196.923077 86.047508V1024l-196.923077-94.570338z" fill="#CCDDFF" p-id="2634"></path><path d="M417.488738 425.995815L1064.073846 342.646154 1067.323077 932.288985 417.476923 1024z" fill="#ACC6FF" p-id="2635"></path><path d="M740.422892 539.569231c36.978215 0 66.961723 34.552123 66.961723 77.162338 0 25.718154-10.917415 48.498215-27.679507 62.511262v114.187815L704.598646 811.323077l-0.015754-129.398154c-18.707692-13.682215-31.105969-37.758031-31.105969-65.181538 0-42.622031 29.971692-77.162338 66.945969-77.162339V539.569231z" fill="#DAE6FF" p-id="2636"></path><path d="M220.553846 338.944L838.526031 259.938462 1063.384615 341.496123 416.740431 425.353846z" fill="#E4EDFF" p-id="2637"></path><path d="M641.039754 0c144.915692 0 233.089969 137.649231 233.089969 307.463877 0 5.612308 0.240246 12.295877 0.208739 18.443815h-112.636062c0.452923-53.362215-1.059446-102.084923-14.674708-139.433354-20.881723-57.265231-69.0176-82.006646-107.264-82.006646-34.390646 0-82.077538 13.871262-102.971077 64.244185-23.898585 57.607877-21.417354 133.029415-20.928984 217.257354h-118.035693c-0.425354-25.741785 2.363077-53.169231 2.363077-78.505354C400.187077 137.649231 496.139815 0 641.039754 0z" fill="#A3C2FF" p-id="2638"></path><path d="M660.294892 0c145.187446 0 233.5232 137.649231 233.5232 307.463877 0 5.612308 0.244185 12.295877 0.212677 18.443815h-112.773907c-0.063015-45.028431-2.548185-85.949046-14.777108-118.094769-20.921108-54.933662-69.147569-78.690462-107.464862-78.690461-34.453662 0-82.235077 13.323815-103.164061 61.648738-22.626462 52.239754-21.641846 119.729231-21.055016 195.198031h-109.185969c-3.816369-27.683446-4.159015-58.399508-4.194461-84.873846v-7.735139C421.415385 123.549538 515.119262 0 660.294892 0z" fill="#CCDDFF" p-id="2639"></path><path d="M1090.953846 920.6784c0.295385 16.852677 33.595077 31.8464 87.362954 39.337354 53.76 7.490954 119.819815 6.340923 173.292308-3.016862 53.464615-9.361723 86.2208-25.505477 85.929354-42.354215-0.295385-16.852677-33.595077-31.8464-87.362954-39.337354-53.76-7.490954-119.819815-6.340923-173.292308 3.016862-53.464615 9.361723-86.2208 25.505477-85.929354 42.354215z" fill="#DFE9F8" p-id="2640"></path><path d="M1337.202215 532.507569c-2.780554 9.814646 0 21.106215-26.092307 37.781662l-4.001477 22.724923-49.092923-5.368123 3.091692-43.768123L1252.430769 493.256862l8.676431-30.176493c21.240123-8.290462 37.903754-8.290462 50.002708 0 18.156308 12.433723 31.905477 48.919631 26.092307 69.4272z" fill="#FFD8C9" p-id="2641"></path><path d="M1229.193846 495.127631c4.048738-28.388431 23.016369-57.9584 45.686154-57.9584 22.665846 0 64.196923 10.192738 64.196923 20.566646 0 6.915938-3.938462 10.373908-11.823261 10.346338h-35.335877c-21.689108 9.598031-32.535631 20.180677-32.535631 31.755816 0 11.5712 1.311508 27.4432 3.914831 47.608123-25.450338-15.954708-36.816738-33.390277-34.107077-52.318523z" fill="#353535" p-id="2642"></path><path d="M1348.123569 574.007138c-23.788308-7.991138-28.805908-12.599138-32.673477 1.878647-3.867569 14.473846-40.329846 15.659323-51.652923 8.373169-5.261785-3.383138-4.954585-13.182031-3.950277-17.120492-41.082092 4.604062-61.636923 13.930338-69.592615 27.10843-11.921723 19.778954-24.469662 77.942154-24.469662 89.792985V815.261538h48.187077c9.869785-34.953846 14.7968-56.154585 14.7968-63.657353 0-11.240369 35.749415-76.894523 47.426954-76.894523 11.681477 0 33.413908-9.3184 41.645292 0 5.4784 6.210954 10.566892 10.704738 15.261539 13.457723 2.886892-17.841231 7.888738-26.769723 15.021292-26.769723 7.1168 0 23.099077 1.914092 47.931077 5.726523l-5.824984-17.002339 19.739569-22.685538c-25.375508-30.290708-45.997292-48.108308-61.845662-53.42917z" fill="#F9F9F9" opacity=".871" p-id="2643"></path><path d="M1358.316308 622.276923H1264.246154l13.879138 78.769231L1382.4 690.884923z" fill="#4366FF" p-id="2644"></path><path d="M1243.053292 571.076923l32.94917 37.793477 0.929476 1.398154 11.846893 23.441723-18.089354 3.304369-43.437292-62.487631 15.801107-3.450092z m-26.143507 218.253785c-11.846892 9.629538-30.208 9.629538-55.063631 0 3.280738 37.021538 8.774892 62.731815 16.462769 77.119015 11.539692 21.582769 25.210092 31.814892 54.768246 31.814892 29.558154 0 58.297108 7.404308 77.599508-27.372307 12.863015-23.173908 18.904615-33.232738 18.148431-30.137108l14.2336 82.920369 7.431877 9.739816L1406.030769 906.767754l-9.499569-93.172185s-8.9088-43.890215-46.040615-117.681231c-2.536369-5.053046-9.755569-10.681108-21.661539-16.884184-24.1152-8.845785-40.613415-8.845785-49.451323 0-8.845785 8.845785-13.264738 17.400123-13.264738 25.643323-20.952615 46.828308-37.356308 75.039508-49.2032 84.669046v-0.011815z" fill="#4366FF" p-id="2645"></path><path d="M1445.415385 887.552L1408.295385 905.846154c-26.718523-132.040862-49.900308-205.658585-69.541416-220.849231-29.459692-22.784 35.792738-23.000615 49.778216-21.626092 13.981538 1.386338 5.927385-46.371446 27.191138 29.755077 21.259815 76.114708 29.692062 173.894892 29.692062 173.894892v20.5312z" fill="#4366FF" p-id="2646"></path><path d="M1247.531323 701.046154l-36.533169 20.003446H1205.169231c17.711262 43.842954 36.938831 70.872615 57.686646 81.077169 31.133538 15.340308 80.832985-6.864738 90.139569-16.021661 6.222769-6.096738 23.110892-17.687631 50.668308-34.772677 21.161354 5.407508 29.404554-1.630523 24.725661-21.090462-4.686769-19.459938-11.008-26.994215-18.971569-22.602831 7.963569-1.4848-2.678154 6.065231-31.929108 22.602831a410.746092 410.746092 0 0 1-93.483323 38.494523L1247.535262 701.046154z" fill="#FFD8C9" p-id="2647"></path><path d="M1381.632 653.713723l19.585969 38.006154-61.373046 39.664246L1287.876923 764.089108l10.121846 11.787815 70.608739-22.874585 32.610461-21.618215 24.505108-27.825231-6.506339-32.752246-17.998769-32.775877z" fill="#FFE1D5" p-id="2648"></path><path d="M1350.998646 932.674954c33.792 24.036431 52.397292 39.821785 55.985231 39.821784 5.383877 0 50.144492 9.542892 50.144492 0 0-6.356677-14.914954-24.308185-44.760615-53.838769l-7.199508-11.8272-26.742154 11.8272-18.065723 8.967877-9.361723 5.049108z m147.298462 6.006154c-1.339077 6.0416-7.991138 8.062031-18.412308 8.06203-6.947446 0-17.837292-2.311877-32.6656-6.939569a569.887508 569.887508 0 0 1-21.047138-17.864861 176.510031 176.510031 0 0 1-16.76997-17.226831l34.745108-16.754215 42.047015 32.815261c8.963938 7.916308 13.000862 13.883077 12.102893 17.908185z" fill="#36608E" p-id="2649"></path><path d="M1340.041846 622.276923H1358.769231l-20.755693-52.724185L1327.261538 567.138462z" fill="#4366FF" p-id="2650"></path><path d="M1347.158646 468.255508l10.275446-5.954954c5.600492-3.241354 6.872615-9.700431 3.178339-16.124062-3.702154-6.435446-9.905231-8.558277-15.505723-5.305107l-10.275446 5.947077c-21.925415-27.305354-57.9072-37.903754-85.9136-21.665477-28.002462 16.234338-36.860062 52.806892-24.260924 85.523692l-10.275446 5.954954c-5.600492 3.241354-6.872615 9.700431-3.178338 16.124061 3.702154 6.435446 9.905231 8.558277 15.505723 5.305108l120.465723-69.805292h-0.015754z" fill="#FBC834" p-id="2651"></path></svg>