<?xml version="1.0" standalone="no"?><!DOCTYPE svg PUBLIC "-//W3C//DTD SVG 1.1//EN" "http://www.w3.org/Graphics/SVG/1.1/DTD/svg11.dtd"><svg t="1723192513401" class="icon" viewBox="0 0 1024 1024" version="1.1" xmlns="http://www.w3.org/2000/svg" p-id="1517" xmlns:xlink="http://www.w3.org/1999/xlink" width="200" height="200"><path d="M556.742 168.024l0.772 0.044 0.294 0.02a29.81 29.81 0 0 1 11.126 3.089l0.703 0.365 0.117 0.063a29.81 29.81 0 0 1 9.299 7.832 29.948 29.948 0 0 1 4.737 8.602l0.263 0.782 0.222 0.722a29.875 29.875 0 0 1 1.21 8.843l-0.001 627.103a29.831 29.831 0 0 1-0.965 8.088l-0.154 0.57-0.078 0.268a29.848 29.848 0 0 1-4.039 8.523l-0.433 0.615-0.144 0.198a29.799 29.799 0 0 1-9.322 8.313 29.797 29.797 0 0 1-11.053 3.696l-0.652 0.075-0.312 0.032c-3.117 0.3-6.297 0.115-9.42-0.588l-0.85-0.204-0.553-0.147-0.404-0.115a29.802 29.802 0 0 1-7.072-3.092L260.345 689.703H178c-43.741 0-79.283-35.104-79.99-78.676l-0.01-1.323V440.118c0-43.74 35.104-79.282 78.677-79.989l1.323-0.01 81.297-0.001 279.165-186.825a29.902 29.902 0 0 1 7.018-3.584l0.768-0.26 0.414-0.131 0.6-0.178 0.167-0.046c0.276-0.078 0.552-0.15 0.828-0.22l0.03-0.005a29.883 29.883 0 0 1 8.455-0.845z m-31.259 86.15L285.094 415.05a30 30 0 0 1-16.128 5.063l-0.557 0.005H178c-10.93 0-19.813 8.77-20 19.656v169.93c0 10.93 8.769 19.813 19.656 19.997l0.344 0.003h90.41a30 30 0 0 1 14.545 3.762l0.492 0.279L525.483 773.95V254.174z" fill="#4633FF" p-id="1518"></path><path d="M618.827 359.69c5.694-15.56 22.924-23.557 38.483-17.863C738.744 371.63 794 449.101 794 537c0 87.9-55.256 165.371-136.69 195.173-15.56 5.694-32.789-2.304-38.483-17.863-5.637-15.404 2.145-32.444 17.398-38.308l0.465-0.175C694.685 654.603 734 599.481 734 537c0-61.857-38.533-116.5-95.576-138.18l-1.734-0.647c-15.56-5.694-23.557-22.924-17.863-38.483z" fill="#48EBE9" p-id="1519"></path><path d="M676.838 253.66c5.71-15.553 22.948-23.532 38.501-17.822C840.862 281.922 926 401.674 926 537.5c0 135.826-85.138 255.578-210.66 301.662-15.554 5.71-32.792-2.27-38.502-17.823-5.653-15.398 2.111-32.446 17.358-38.326l0.465-0.175C796.753 745.356 866 647.956 866 537.5c0-109.351-67.869-205.907-168.286-244.196l-3.053-1.142c-15.554-5.71-23.533-22.948-17.823-38.501z" fill="#48EBE9" p-id="1520"></path></svg>